<?xml version="1.0" encoding="utf-8"?>
<!-- Generator: Adobe Illustrator 16.0.3, SVG Export Plug-In . SVG Version: 6.00 Build 0)  -->
<!DOCTYPE svg PUBLIC "-//W3C//DTD SVG 1.1//EN" "http://www.w3.org/Graphics/SVG/1.1/DTD/svg11.dtd">
<svg version="1.1" id="Layer_1" xmlns="http://www.w3.org/2000/svg" xmlns:xlink="http://www.w3.org/1999/xlink" x="0px" y="0px"
	 width="433.504px" height="433.5px" viewBox="0 0 433.504 433.5" enable-background="new 0 0 433.504 433.5" xml:space="preserve">
<g>
	<g>
		<path d="M321.259,57.729c-0.296,0.478-0.594,0.936-0.892,1.374c-0.298,0.438-0.623,0.848-0.973,1.227
			c-0.353,0.38-0.736,0.733-1.154,1.059c-0.418,0.324-0.906,0.607-1.462,0.847c-1.023,0.459-2.063,0.627-3.12,0.505
			c-1.057-0.123-2.053-0.475-2.988-1.057c-0.771-0.479-1.395-1.135-1.872-1.965c-0.476-0.831-0.805-1.672-0.986-2.523l4.437-1.364
			c-0.104,0.369-0.09,0.797,0.04,1.285s0.359,0.834,0.691,1.04c0.495,0.308,0.977,0.354,1.441,0.134
			c0.468-0.219,0.908-0.549,1.323-0.991c0.413-0.441,0.782-0.932,1.104-1.47c0.319-0.538,0.586-0.972,0.791-1.302l8.097-13.024
			l4.048,2.518L321.259,57.729z"/>
		<path d="M332.299,56.115l-5.12,6.94c-0.271,0.365-0.522,0.756-0.763,1.17c-0.239,0.414-0.396,0.829-0.474,1.241
			c-0.077,0.414-0.055,0.82,0.066,1.219c0.123,0.398,0.419,0.771,0.89,1.119c0.469,0.346,0.912,0.519,1.33,0.518
			c0.417-0.001,0.812-0.1,1.185-0.295c0.371-0.195,0.72-0.468,1.047-0.819c0.325-0.35,0.623-0.708,0.894-1.072l5.12-6.94
			l3.651,2.695l-5.563,7.54c-1.386,1.878-2.91,2.942-4.572,3.193c-1.664,0.251-3.45-0.329-5.364-1.741
			c-1.913-1.41-2.995-2.947-3.245-4.609c-0.252-1.663,0.316-3.435,1.701-5.313l5.563-7.54L332.299,56.115z"/>
		<path d="M346.885,72.673c-0.046-0.44-0.152-0.878-0.319-1.312c-0.168-0.433-0.421-0.798-0.764-1.097
			c-0.277-0.242-0.62-0.368-1.025-0.378c-0.407-0.012-0.737,0.131-0.993,0.424c-0.199,0.229-0.294,0.476-0.283,0.743
			c0.012,0.267,0.081,0.564,0.21,0.893c0.13,0.329,0.295,0.673,0.495,1.035c0.201,0.362,0.399,0.743,0.597,1.142
			c0.194,0.401,0.36,0.818,0.497,1.253c0.138,0.436,0.207,0.891,0.208,1.364c0.003,0.475-0.091,0.96-0.278,1.456
			c-0.188,0.496-0.51,1.004-0.965,1.525c-0.583,0.667-1.229,1.151-1.937,1.452c-0.706,0.302-1.431,0.45-2.174,0.448
			c-0.744-0.004-1.481-0.151-2.214-0.447c-0.733-0.295-1.417-0.719-2.052-1.272c-0.814-0.711-1.439-1.564-1.875-2.562
			c-0.438-0.996-0.639-2.041-0.604-3.13l3.333-0.664c-0.001,0.658,0.093,1.315,0.284,1.97c0.188,0.652,0.537,1.199,1.043,1.641
			c0.374,0.327,0.799,0.489,1.272,0.487c0.476-0.001,0.883-0.198,1.225-0.589c0.228-0.262,0.347-0.537,0.355-0.828
			c0.013-0.292-0.036-0.6-0.143-0.922c-0.107-0.321-0.26-0.664-0.461-1.025c-0.2-0.361-0.391-0.735-0.569-1.121
			c-0.181-0.386-0.346-0.789-0.496-1.207s-0.229-0.846-0.236-1.282c-0.008-0.437,0.065-0.882,0.22-1.337
			c0.152-0.454,0.442-0.926,0.868-1.414c0.482-0.555,1.027-0.988,1.635-1.307c0.606-0.317,1.226-0.502,1.858-0.552
			c0.632-0.051,1.265,0.027,1.9,0.237c0.634,0.209,1.236,0.563,1.807,1.061c0.636,0.554,1.228,1.25,1.773,2.085
			c0.546,0.836,0.88,1.679,0.999,2.528L346.885,72.673z"/>
		<path d="M346.04,88.674l-3.236-3.183l8.479-8.623l-1.11-1.092l2.683-2.729l1.109,1.092l3.772-3.838l3.237,3.183l-3.773,3.837
			l1.988,1.955l-2.683,2.729l-1.988-1.955L346.04,88.674z"/>
		<path d="M360.231,104.805l-2.384-2.991L379.35,84.68l2.384,2.991L360.231,104.805z"/>
		<path d="M374.702,126.397l-1.932-3.302l23.733-13.882l1.932,3.304L374.702,126.397z"/>
		<path d="M385.943,149.835l-1.441-3.543l25.468-10.362l1.441,3.543L385.943,149.835z"/>
		<path d="M393.742,174.612l-0.925-3.712l26.678-6.652l0.927,3.712L393.742,174.612z"/>
		<path d="M397.956,200.257l-0.391-3.806l27.352-2.803l0.392,3.806L397.956,200.257z"/>
		<path d="M414.975,225.201c-0.053,1.23-0.311,2.352-0.774,3.359c-0.465,1.008-1.084,1.862-1.859,2.565s-1.695,1.238-2.761,1.604
			c-1.064,0.366-2.213,0.522-3.442,0.473c-1.231-0.052-2.356-0.3-3.377-0.741c-1.021-0.443-1.888-1.049-2.603-1.813
			c-0.714-0.767-1.259-1.67-1.638-2.714c-0.378-1.043-0.541-2.191-0.489-3.444c0.053-1.253,0.313-2.382,0.775-3.391
			s1.084-1.864,1.859-2.566c0.774-0.703,1.689-1.233,2.743-1.589c1.054-0.356,2.195-0.509,3.427-0.457s2.36,0.305,3.392,0.758
			c1.03,0.454,1.902,1.064,2.618,1.83c0.713,0.765,1.261,1.67,1.639,2.714C414.863,222.833,415.026,223.97,414.975,225.201z
			 M410.958,225.033c0.023-0.584-0.084-1.112-0.321-1.588c-0.24-0.475-0.564-0.883-0.973-1.225c-0.407-0.343-0.878-0.61-1.409-0.807
			c-0.533-0.194-1.07-0.305-1.609-0.327c-0.54-0.021-1.077,0.041-1.614,0.192c-0.537,0.15-1.021,0.379-1.456,0.685
			c-0.436,0.308-0.791,0.687-1.068,1.141c-0.279,0.453-0.433,0.972-0.456,1.555c-0.024,0.583,0.084,1.111,0.322,1.587
			c0.24,0.477,0.564,0.884,0.972,1.227c0.408,0.342,0.872,0.608,1.396,0.805c0.521,0.194,1.053,0.304,1.593,0.326
			c0.539,0.021,1.082-0.041,1.631-0.191c0.547-0.149,1.037-0.378,1.473-0.685c0.435-0.308,0.791-0.688,1.07-1.141
			C410.782,226.134,410.932,225.616,410.958,225.033z"/>
		<path d="M411.712,240.926l-0.011,0.064c0.644,0.567,1.063,1.236,1.265,2.006c0.198,0.77,0.244,1.562,0.133,2.375
			c-0.145,1.049-0.441,1.902-0.893,2.562c-0.45,0.658-1.004,1.154-1.659,1.49c-0.657,0.335-1.399,0.532-2.227,0.596
			c-0.827,0.061-1.701,0.027-2.621-0.099l-9.636-1.32l0.616-4.497l8.352,1.146c0.472,0.064,0.965,0.12,1.482,0.17
			c0.517,0.049,0.993,0.032,1.431-0.05s0.815-0.27,1.141-0.563c0.323-0.294,0.528-0.764,0.617-1.405
			c0.092-0.664-0.005-1.2-0.285-1.61c-0.282-0.409-0.657-0.732-1.128-0.972c-0.47-0.24-0.985-0.414-1.548-0.523
			s-1.081-0.197-1.552-0.262l-7.806-1.07l0.615-4.497l15.773,2.162l-0.617,4.497L411.712,240.926z"/>
		<path d="M401.761,256.48c-0.48-0.111-0.979-0.171-1.494-0.179c-0.517-0.01-0.999,0.058-1.449,0.197
			c-0.45,0.141-0.849,0.381-1.189,0.725c-0.345,0.341-0.58,0.798-0.713,1.365c-0.171,0.738-0.109,1.389,0.182,1.955
			c0.291,0.567,0.707,1.066,1.251,1.504l-1.604,3.923c-1.438-0.91-2.433-2.089-2.981-3.533c-0.551-1.447-0.637-2.992-0.258-4.635
			c0.277-1.2,0.728-2.233,1.349-3.101s1.373-1.546,2.252-2.042c0.88-0.496,1.856-0.809,2.928-0.938
			c1.072-0.131,2.199-0.059,3.378,0.215c1.181,0.271,2.244,0.684,3.193,1.234c0.947,0.553,1.73,1.228,2.345,2.021
			c0.615,0.797,1.029,1.714,1.245,2.751c0.215,1.036,0.177,2.186-0.115,3.45c-0.291,1.264-0.765,2.309-1.421,3.133
			s-1.433,1.449-2.33,1.875c-0.896,0.426-1.896,0.666-2.994,0.723c-1.102,0.058-2.23-0.049-3.389-0.315l-0.537-0.123L401.761,256.48
			z M403.117,263.148c0.415,0.029,0.823,0.014,1.228-0.049c0.401-0.063,0.779-0.187,1.134-0.371c0.353-0.185,0.658-0.424,0.915-0.72
			c0.257-0.297,0.435-0.653,0.531-1.075c0.102-0.443,0.103-0.857,0.004-1.246c-0.1-0.392-0.262-0.739-0.49-1.046
			c-0.229-0.308-0.516-0.579-0.86-0.813c-0.346-0.234-0.711-0.431-1.096-0.586L403.117,263.148z"/>
		<path d="M382.383,292.062l1.552-3.498l25.134,11.146l-1.551,3.498L382.383,292.062z"/>
		<path d="M369.948,314.898l2.027-3.244l23.315,14.572l-2.028,3.242L369.948,314.898z"/>
		<path d="M354.418,335.752l2.47-2.925l21.009,17.736l-2.468,2.924L354.418,335.752z"/>
		<path d="M336.082,354.156l2.861-2.539l18.248,20.566l-2.861,2.539L336.082,354.156z"/>
		<path d="M315.278,369.746l3.197-2.102l15.11,22.969l-3.196,2.104L315.278,369.746z"/>
		<path d="M302.522,393.607l-0.061,0.027c-0.143,0.746-0.472,1.418-0.988,2.014c-0.519,0.594-1.111,1.041-1.784,1.336
			c-1.858,0.822-3.588,0.676-5.19-0.436c-0.14,0.912-0.501,1.739-1.084,2.481c-0.581,0.74-1.299,1.299-2.146,1.676
			c-0.931,0.41-1.765,0.582-2.501,0.521c-0.737-0.064-1.398-0.293-1.985-0.684c-0.586-0.392-1.107-0.916-1.565-1.576
			c-0.454-0.662-0.858-1.388-1.209-2.179l-4.009-9.073l4.151-1.836l3.381,7.651c0.156,0.355,0.344,0.765,0.559,1.226
			c0.216,0.459,0.477,0.877,0.782,1.248c0.308,0.373,0.657,0.645,1.05,0.813c0.395,0.17,0.849,0.141,1.361-0.086
			c0.574-0.254,0.935-0.615,1.082-1.082s0.187-0.969,0.115-1.504c-0.07-0.535-0.213-1.07-0.424-1.602
			c-0.213-0.533-0.4-0.988-0.566-1.363l-3.158-7.148l4.152-1.834l3.263,7.387c0.156,0.355,0.345,0.779,0.563,1.273
			c0.218,0.494,0.486,0.943,0.807,1.346c0.32,0.403,0.688,0.701,1.104,0.896c0.418,0.192,0.893,0.174,1.426-0.063
			c0.574-0.254,0.938-0.617,1.098-1.088c0.157-0.471,0.196-0.973,0.115-1.504s-0.232-1.063-0.454-1.59s-0.416-0.98-0.581-1.355
			l-3.158-7.147l4.152-1.834l6.433,14.563l-4.15,1.834L302.522,393.607z"/>
		<path d="M275.387,406.254c-1.177,0.362-2.317,0.495-3.424,0.396c-1.104-0.1-2.118-0.396-3.042-0.893
			c-0.922-0.496-1.733-1.185-2.438-2.064c-0.701-0.879-1.233-1.908-1.599-3.086c-0.363-1.176-0.508-2.32-0.433-3.428
			c0.075-1.111,0.354-2.129,0.836-3.06c0.482-0.93,1.151-1.748,2.008-2.453c0.856-0.707,1.885-1.245,3.08-1.614
			c1.198-0.371,2.351-0.506,3.455-0.406c1.106,0.1,2.12,0.396,3.042,0.893c0.923,0.494,1.729,1.181,2.417,2.054
			s1.214,1.897,1.579,3.073c0.362,1.179,0.504,2.328,0.421,3.451c-0.083,1.121-0.364,2.148-0.848,3.078
			c-0.481,0.93-1.15,1.748-2.007,2.453C277.583,405.353,276.565,405.888,275.387,406.254z M274.2,402.412
			c0.559-0.172,1.021-0.45,1.388-0.836c0.368-0.385,0.645-0.828,0.829-1.326c0.186-0.497,0.281-1.03,0.286-1.598
			c0.006-0.567-0.07-1.108-0.23-1.627c-0.159-0.516-0.399-1.002-0.722-1.455c-0.321-0.455-0.699-0.836-1.135-1.143
			c-0.434-0.308-0.91-0.517-1.432-0.627c-0.521-0.109-1.061-0.08-1.618,0.094c-0.558,0.172-1.021,0.449-1.387,0.836
			c-0.367,0.385-0.645,0.826-0.829,1.324c-0.186,0.5-0.282,1.024-0.291,1.584c-0.01,0.557,0.066,1.094,0.227,1.608
			c0.16,0.517,0.401,1.009,0.728,1.474c0.325,0.465,0.704,0.852,1.139,1.158s0.912,0.516,1.433,0.625
			C273.104,402.615,273.643,402.584,274.2,402.412z"/>
		<path d="M259.554,408.219l-0.063,0.014c-0.291,0.775-0.721,1.42-1.293,1.937c-0.57,0.516-1.267,0.866-2.089,1.053
			c-0.317,0.069-0.637,0.104-0.959,0.098c-0.322-0.004-0.644-0.024-0.962-0.063l-0.389-4.234c0.636,0.258,1.289,0.309,1.965,0.158
			c0.759-0.172,1.33-0.461,1.716-0.869c0.385-0.408,0.638-0.885,0.758-1.434c0.12-0.548,0.143-1.136,0.068-1.761
			c-0.075-0.625-0.179-1.233-0.312-1.823l-1.572-6.99l4.43-0.996l3.493,15.531l-4.43,0.996L259.554,408.219z"/>
		<path d="M247.078,403.488c-0.071-0.488-0.197-0.973-0.379-1.457c-0.18-0.481-0.417-0.908-0.712-1.274
			c-0.295-0.369-0.665-0.65-1.108-0.847c-0.442-0.192-0.954-0.248-1.531-0.164c-0.747,0.111-1.333,0.404-1.756,0.884
			c-0.42,0.477-0.733,1.047-0.941,1.713l-4.236-0.063c0.321-1.672,1.056-3.026,2.2-4.067c1.146-1.039,2.555-1.683,4.222-1.929
			c1.22-0.182,2.346-0.139,3.378,0.123c1.033,0.263,1.94,0.713,2.724,1.353c0.783,0.639,1.431,1.432,1.941,2.385
			c0.514,0.951,0.856,2.025,1.033,3.223c0.176,1.197,0.183,2.338,0.015,3.422c-0.169,1.086-0.511,2.06-1.026,2.923
			c-0.516,0.862-1.22,1.584-2.106,2.161c-0.886,0.578-1.973,0.964-3.255,1.154c-1.283,0.188-2.428,0.129-3.436-0.182
			c-1.008-0.312-1.871-0.806-2.596-1.484c-0.724-0.682-1.312-1.522-1.766-2.524c-0.454-1.005-0.769-2.095-0.942-3.271l-0.079-0.545
			L247.078,403.488z M241.365,407.183c0.124,0.396,0.288,0.771,0.493,1.123c0.205,0.354,0.457,0.66,0.759,0.922
			c0.3,0.262,0.636,0.457,1.005,0.588s0.768,0.166,1.194,0.104c0.448-0.066,0.837-0.218,1.163-0.451
			c0.324-0.234,0.591-0.515,0.794-0.838c0.203-0.326,0.351-0.691,0.441-1.099c0.095-0.407,0.144-0.819,0.146-1.233L241.365,407.183z
			"/>
		<path d="M215.975,398.717l3.824-0.027l0.197,27.494l-3.826,0.027L215.975,398.717z"/>
		<path d="M190.043,396.765l3.79,0.521l-3.74,27.238l-3.789-0.521L190.043,396.765z"/>
		<path d="M164.708,391.127l3.676,1.059l-7.605,26.422l-3.677-1.061L164.708,391.127z"/>
		<path d="M140.397,381.9l3.488,1.572l-11.308,25.063l-3.487-1.571L140.397,381.9z"/>
		<path d="M117.626,369.314l3.231,2.049l-14.719,23.224l-3.23-2.048L117.626,369.314z"/>
		<path d="M94.686,360.74l-9.359,4.644l-1.62-1.447l3.614-9.941l-8.711,4.697l-3.677-3.283l16.332-7.194l1.717,1.532l-3.915,9.5
			l9.285-4.707l1.74,1.556l-5.35,16.998l-3.701-3.304L94.686,360.74z"/>
		<path d="M75.527,331.761l2.968,3.35l-1.094,0.967l0.044,0.05c0.799-0.043,1.585,0.11,2.36,0.465
			c0.773,0.354,1.435,0.838,1.979,1.453c0.772,0.873,1.278,1.811,1.518,2.813c0.236,1.002,0.265,2.004,0.08,3.002
			c-0.183,1-0.551,1.961-1.104,2.885c-0.555,0.925-1.236,1.744-2.045,2.461c-0.792,0.701-1.674,1.265-2.64,1.689
			c-0.97,0.422-1.954,0.662-2.962,0.715c-1.007,0.055-1.984-0.098-2.937-0.453c-0.949-0.354-1.805-0.963-2.564-1.819
			c-0.545-0.615-0.948-1.334-1.213-2.152c-0.264-0.82-0.34-1.654-0.228-2.506l-1.116,0.988l-2.967-3.351L75.527,331.761z
			 M78.087,339.933c-0.388-0.438-0.837-0.74-1.347-0.908c-0.511-0.17-1.035-0.24-1.572-0.211s-1.063,0.154-1.571,0.375
			c-0.513,0.223-0.97,0.512-1.374,0.871c-0.403,0.357-0.747,0.777-1.03,1.258c-0.28,0.48-0.469,0.986-0.563,1.517
			c-0.093,0.53-0.083,1.055,0.031,1.575s0.364,0.998,0.751,1.435c0.387,0.438,0.832,0.744,1.333,0.92
			c0.504,0.176,1.021,0.246,1.551,0.209c0.53-0.037,1.052-0.166,1.563-0.387c0.511-0.224,0.969-0.513,1.372-0.871
			c0.404-0.359,0.749-0.777,1.029-1.259c0.282-0.479,0.474-0.981,0.573-1.504c0.103-0.521,0.1-1.047-0.008-1.573
			C78.721,340.851,78.473,340.369,78.087,339.933z"/>
		<path d="M70.742,325.381l2.753,3.608l-9.614,7.336l0.943,1.236l-3.041,2.32l-0.943-1.236l-4.279,3.264l-2.753-3.606l4.278-3.267
			l-1.69-2.217l3.042-2.319l1.689,2.217L70.742,325.381z"/>
		<path d="M53.449,319.806c-0.135,0.688-0.171,1.326-0.106,1.906c0.066,0.582,0.291,1.159,0.678,1.733
			c0.36,0.537,0.794,0.938,1.294,1.201c0.503,0.262,1.034,0.404,1.599,0.43c0.563,0.025,1.13-0.043,1.698-0.203
			c0.569-0.159,1.096-0.403,1.58-0.729c0.521-0.35,0.955-0.758,1.305-1.227c0.351-0.47,0.6-0.97,0.75-1.5
			c0.15-0.531,0.182-1.078,0.088-1.642c-0.092-0.563-0.317-1.115-0.68-1.652c-0.35-0.521-0.791-0.928-1.325-1.219
			s-1.104-0.481-1.711-0.569l3.633-2.439c0.64,0.328,1.198,0.717,1.688,1.172c0.485,0.453,0.923,0.969,1.309,1.543
			c0.651,0.969,1.063,1.988,1.234,3.058c0.172,1.069,0.138,2.114-0.104,3.135c-0.238,1.02-0.669,1.979-1.289,2.877
			c-0.619,0.897-1.405,1.668-2.356,2.307c-0.986,0.662-2.025,1.113-3.115,1.351c-1.091,0.237-2.159,0.266-3.205,0.084
			c-1.048-0.185-2.035-0.568-2.963-1.156c-0.929-0.586-1.729-1.383-2.405-2.389c-0.35-0.521-0.635-1.089-0.854-1.709
			c-0.223-0.619-0.344-1.261-0.371-1.918L53.449,319.806z"/>
		<path d="M35.103,321.06l11.273-6.277l-0.03-0.057c-0.799-0.1-1.504-0.4-2.116-0.9s-1.118-1.108-1.519-1.826
			c-0.516-0.926-0.79-1.786-0.825-2.584c-0.036-0.797,0.107-1.524,0.433-2.188c0.324-0.662,0.798-1.267,1.421-1.813
			c0.624-0.545,1.342-1.043,2.154-1.496l8.499-4.731l2.208,3.967l-7.365,4.103c-0.415,0.229-0.845,0.481-1.288,0.754
			c-0.442,0.271-0.813,0.569-1.113,0.897s-0.49,0.707-0.573,1.136c-0.081,0.43,0.034,0.928,0.35,1.493
			c0.326,0.586,0.727,0.959,1.197,1.115c0.471,0.158,0.965,0.191,1.483,0.103c0.52-0.09,1.035-0.263,1.553-0.513
			c0.517-0.25,0.981-0.492,1.397-0.723l6.883-3.834l2.209,3.967l-24.021,13.375L35.103,321.06z"/>
		<path d="M46.133,292.265l10.816,0.104l0.953,2.885l-10.428,0.964L46.133,292.265z"/>
		<path d="M43.228,271.447l1.188,3.637l-26.137,8.533l-1.188-3.639L43.228,271.447z"/>
		<path d="M37.2,246.153l0.659,3.769l-27.082,4.742l-0.66-3.769L37.2,246.153z"/>
		<path d="M34.821,220.266l0.118,3.823l-27.482,0.847l-0.117-3.825L34.821,220.266z"/>
		<path d="M36.157,194.301l-0.43,3.803l-27.321-3.092l0.431-3.803L36.157,194.301z"/>
		<path d="M42.61,163.906l-1.326,4.578l-23.479-6.811l1.326-4.577L42.61,163.906z"/>
		<path d="M34.847,142.618c-0.374-0.724-0.564-1.515-0.572-2.377c-0.008-0.861,0.153-1.68,0.482-2.455
			c0.441-1.033,1.063-1.867,1.861-2.502c0.8-0.633,1.687-1.084,2.657-1.351c0.971-0.268,1.985-0.356,3.041-0.271
			c1.056,0.086,2.062,0.333,3.016,0.74c0.994,0.424,1.9,0.987,2.716,1.688c0.817,0.702,1.472,1.497,1.961,2.389
			c0.488,0.891,0.776,1.854,0.864,2.89c0.086,1.036-0.101,2.09-0.558,3.164c-0.322,0.755-0.797,1.422-1.42,2.002
			s-1.322,0.952-2.098,1.114l-0.024,0.06l9.185,3.92l-1.781,4.176l-22.454-9.584l1.78-4.176L34.847,142.618z M46.225,143.879
			c0.228-0.537,0.311-1.07,0.244-1.604c-0.066-0.533-0.229-1.032-0.49-1.496c-0.26-0.463-0.602-0.878-1.021-1.246
			c-0.419-0.367-0.876-0.656-1.374-0.869c-0.496-0.212-1.021-0.342-1.578-0.392c-0.555-0.048-1.09-0.007-1.604,0.126
			s-0.982,0.361-1.404,0.688c-0.421,0.326-0.746,0.757-0.976,1.294c-0.229,0.536-0.314,1.069-0.258,1.6
			c0.055,0.528,0.214,1.024,0.474,1.488s0.601,0.88,1.02,1.246c0.42,0.367,0.878,0.656,1.374,0.869
			c0.497,0.213,1.022,0.343,1.578,0.392c0.557,0.05,1.091,0.008,1.605-0.126c0.515-0.133,0.985-0.359,1.418-0.682
			C45.666,144.845,45.996,144.416,46.225,143.879z"/>
		<path d="M43.075,125.489l0.031-0.058c-0.402-0.725-0.614-1.471-0.639-2.238c-0.022-0.771,0.16-1.527,0.554-2.273
			c0.149-0.287,0.332-0.552,0.544-0.795c0.213-0.242,0.438-0.472,0.674-0.688l3.476,2.446c-0.604,0.316-1.068,0.781-1.39,1.395
			c-0.363,0.688-0.512,1.313-0.451,1.869c0.063,0.558,0.264,1.06,0.603,1.506c0.34,0.447,0.771,0.844,1.296,1.192
			c0.523,0.35,1.056,0.664,1.591,0.944l6.346,3.331l-2.109,4.02l-14.097-7.399l2.109-4.019L43.075,125.489z"/>
		<path d="M48.873,111.084c0.656-1.043,1.437-1.887,2.339-2.531c0.902-0.646,1.866-1.08,2.89-1.308
			c1.021-0.225,2.085-0.231,3.191-0.021c1.106,0.211,2.182,0.644,3.224,1.299c1.044,0.656,1.897,1.429,2.563,2.318
			c0.666,0.892,1.119,1.847,1.359,2.865c0.24,1.021,0.265,2.075,0.076,3.168c-0.189,1.095-0.618,2.171-1.284,3.233
			c-0.668,1.062-1.453,1.915-2.355,2.56c-0.903,0.646-1.867,1.08-2.89,1.306s-2.078,0.231-3.17,0.018
			c-1.091-0.213-2.158-0.648-3.202-1.304c-1.043-0.655-1.899-1.437-2.568-2.342c-0.669-0.904-1.124-1.867-1.362-2.888
			c-0.241-1.019-0.268-2.075-0.076-3.169C47.794,113.196,48.217,112.127,48.873,111.084z M52.276,113.224
			c-0.311,0.494-0.479,1.007-0.506,1.539c-0.028,0.531,0.05,1.046,0.232,1.545c0.186,0.499,0.46,0.966,0.825,1.398
			c0.365,0.436,0.777,0.795,1.234,1.083c0.458,0.288,0.956,0.5,1.496,0.635c0.541,0.137,1.075,0.179,1.604,0.129
			c0.53-0.051,1.026-0.203,1.495-0.459c0.467-0.256,0.854-0.631,1.166-1.124c0.311-0.494,0.479-1.007,0.508-1.538
			c0.026-0.532-0.052-1.047-0.235-1.546c-0.185-0.499-0.454-0.962-0.812-1.392c-0.354-0.428-0.762-0.786-1.221-1.073
			c-0.457-0.288-0.961-0.502-1.511-0.643s-1.09-0.188-1.618-0.137c-0.529,0.05-1.028,0.203-1.495,0.458
			C52.976,112.355,52.587,112.729,52.276,113.224z"/>
		<path d="M59.527,98.79l0.041-0.05c-0.217-0.729-0.233-1.477-0.047-2.243c0.186-0.766,0.509-1.435,0.971-2.007
			c1.272-1.583,2.875-2.249,4.811-1.998c-0.296-0.875-0.354-1.775-0.179-2.702c0.176-0.926,0.557-1.751,1.139-2.476
			c0.636-0.792,1.298-1.328,1.98-1.61c0.686-0.281,1.377-0.383,2.077-0.306c0.699,0.078,1.405,0.305,2.115,0.682
			c0.709,0.377,1.4,0.836,2.074,1.377l7.731,6.219l-2.847,3.537l-6.519-5.242c-0.303-0.244-0.655-0.521-1.059-0.831
			c-0.402-0.31-0.825-0.561-1.27-0.75c-0.443-0.19-0.879-0.271-1.306-0.239c-0.428,0.031-0.818,0.266-1.17,0.704
			c-0.393,0.489-0.547,0.974-0.463,1.457c0.083,0.482,0.278,0.945,0.588,1.39c0.309,0.442,0.68,0.854,1.113,1.229
			c0.432,0.376,0.809,0.692,1.129,0.949l6.089,4.897l-2.845,3.538l-6.292-5.062c-0.303-0.242-0.663-0.533-1.085-0.874
			c-0.421-0.338-0.866-0.612-1.336-0.823c-0.469-0.21-0.933-0.307-1.392-0.287s-0.873,0.256-1.237,0.711
			c-0.394,0.487-0.552,0.979-0.475,1.47c0.076,0.492,0.271,0.954,0.588,1.389c0.316,0.437,0.694,0.836,1.134,1.203
			c0.439,0.368,0.82,0.681,1.14,0.938l6.09,4.896l-2.845,3.538l-12.406-9.978l2.847-3.537L59.527,98.79z"/>
		<path d="M67.913,72.518c0.526-0.543,1.162-0.817,1.902-0.822c0.741-0.004,1.376,0.249,1.904,0.76
			c0.543,0.526,0.819,1.156,0.833,1.89c0.012,0.733-0.245,1.371-0.771,1.916c-0.526,0.544-1.156,0.82-1.89,0.833
			c-0.734,0.012-1.372-0.245-1.915-0.771c-0.528-0.511-0.803-1.137-0.822-1.878S67.388,73.063,67.913,72.518z M87.667,88.473
			l-3.157,3.262L73.07,80.666l3.157-3.263L87.667,88.473z"/>
		<path d="M87.61,71.769c-0.444-0.002-0.891,0.056-1.339,0.175s-0.839,0.332-1.173,0.64c-0.271,0.249-0.434,0.575-0.488,0.979
			c-0.055,0.402,0.05,0.748,0.313,1.034c0.205,0.223,0.441,0.343,0.709,0.361c0.267,0.02,0.569-0.019,0.91-0.11
			c0.34-0.094,0.702-0.221,1.083-0.381c0.381-0.159,0.781-0.315,1.2-0.467c0.42-0.15,0.854-0.271,1.3-0.359
			c0.448-0.088,0.908-0.107,1.38-0.058c0.473,0.05,0.943,0.195,1.416,0.438s0.942,0.617,1.411,1.125
			c0.601,0.651,1.012,1.347,1.232,2.082c0.223,0.735,0.291,1.473,0.208,2.211c-0.085,0.739-0.313,1.456-0.687,2.15
			c-0.373,0.696-0.87,1.329-1.489,1.901c-0.795,0.732-1.713,1.26-2.75,1.584c-1.038,0.325-2.099,0.411-3.178,0.259l-0.296-3.385
			c0.654,0.073,1.316,0.051,1.987-0.067c0.67-0.116,1.252-0.402,1.744-0.856c0.366-0.336,0.574-0.741,0.624-1.213
			c0.051-0.473-0.102-0.899-0.452-1.281c-0.233-0.254-0.495-0.403-0.784-0.445s-0.6-0.027-0.932,0.042
			c-0.332,0.07-0.688,0.187-1.07,0.346c-0.38,0.159-0.771,0.31-1.177,0.444c-0.403,0.138-0.821,0.257-1.254,0.362
			c-0.433,0.104-0.865,0.136-1.301,0.096c-0.436-0.041-0.868-0.162-1.306-0.363c-0.434-0.201-0.871-0.541-1.312-1.019
			c-0.497-0.541-0.87-1.13-1.119-1.767c-0.249-0.638-0.364-1.273-0.346-1.908c0.018-0.634,0.165-1.255,0.442-1.863
			c0.277-0.607,0.694-1.168,1.252-1.681c0.62-0.571,1.375-1.083,2.266-1.535c0.892-0.453,1.766-0.692,2.624-0.718L87.61,71.769z"/>
		<path d="M97.76,69.62c0.307,0.388,0.655,0.748,1.052,1.078c0.396,0.33,0.813,0.583,1.253,0.756
			c0.438,0.174,0.898,0.236,1.38,0.186c0.481-0.052,0.954-0.257,1.413-0.616c0.595-0.466,0.957-1.012,1.086-1.635
			c0.131-0.624,0.12-1.274-0.028-1.955l3.712-2.044c0.549,1.61,0.582,3.15,0.103,4.623c-0.48,1.471-1.385,2.727-2.712,3.767
			c-0.97,0.76-1.97,1.281-2.995,1.565c-1.027,0.283-2.039,0.342-3.035,0.175c-0.995-0.167-1.952-0.536-2.868-1.11
			c-0.916-0.572-1.747-1.335-2.493-2.288c-0.747-0.952-1.314-1.94-1.707-2.967c-0.393-1.024-0.577-2.04-0.556-3.047
			c0.021-1.005,0.275-1.979,0.759-2.921s1.235-1.813,2.257-2.613s2.045-1.313,3.073-1.544c1.029-0.229,2.026-0.228,2.992,0.005
			c0.963,0.232,1.892,0.672,2.783,1.319c0.892,0.646,1.704,1.438,2.438,2.374l0.339,0.434L97.76,69.62z M100.894,63.579
			c-0.304-0.283-0.632-0.525-0.984-0.73c-0.352-0.204-0.724-0.346-1.114-0.424c-0.39-0.077-0.778-0.083-1.165-0.015
			c-0.386,0.069-0.748,0.237-1.089,0.503c-0.355,0.281-0.619,0.604-0.786,0.967c-0.167,0.365-0.261,0.738-0.274,1.121
			c-0.017,0.384,0.037,0.774,0.158,1.176c0.119,0.397,0.281,0.78,0.483,1.144L100.894,63.579z"/>
		<path d="M111.614,61.997c0.662-0.449,1.381-0.604,2.154-0.463c0.774,0.141,1.387,0.542,1.837,1.204
			c0.447,0.661,0.602,1.387,0.457,2.176c-0.145,0.79-0.546,1.41-1.208,1.858c-0.661,0.45-1.387,0.594-2.172,0.437
			c-0.787-0.157-1.404-0.568-1.854-1.23c-0.447-0.662-0.595-1.377-0.439-2.15C110.544,63.057,110.952,62.446,111.614,61.997z"/>
		<path d="M135.197,54.095l-3.403,1.748l-12.558-24.459l3.403-1.748L135.197,54.095z"/>
		<path d="M159.202,44.154l-3.615,1.247l-8.961-25.994l3.617-1.247L159.202,44.154z"/>
		<path d="M184.395,37.711l-3.758,0.723l-5.187-27.001l3.758-0.722L184.395,37.711z"/>
		<path d="M246.44,37.203l-3.781-0.583l4.195-27.172l3.781,0.583L246.44,37.203z"/>
		<path d="M271.725,43.278l-3.657-1.121l8.054-26.288l3.658,1.121L271.725,43.278z"/>
		<path d="M295.843,52.897l-3.461-1.631l11.72-24.872l3.462,1.63L295.843,52.897z"/>
	</g>
	<g>
		<path d="M216.756,433.5c-57.897,0-112.331-22.546-153.271-63.483C22.545,329.078,0,274.647,0,216.75
			c0-57.896,22.546-112.327,63.486-153.265C104.425,22.546,158.858,0,216.756,0c57.896,0,112.324,22.546,153.264,63.485
			c40.938,40.938,63.484,95.37,63.484,153.266c0,57.896-22.547,112.326-63.484,153.267C329.081,410.955,274.651,433.5,216.756,433.5
			z M216.756,3C98.891,3,3,98.888,3,216.75C3,334.612,98.891,430.5,216.756,430.5c117.86,0,213.748-95.888,213.748-213.75
			C430.504,98.888,334.617,3,216.756,3z"/>
	</g>
	<g>
		<circle cx="216.75" cy="21.25" r="9.967"/>
	</g>
</g>
</svg>
