<?xml version="1.0" encoding="iso-8859-1"?>
<!-- Generator: Adobe Illustrator 16.0.3, SVG Export Plug-In . SVG Version: 6.00 Build 0)  -->
<!DOCTYPE svg PUBLIC "-//W3C//DTD SVG 1.1//EN" "http://www.w3.org/Graphics/SVG/1.1/DTD/svg11.dtd">
<svg version="1.1" id="Layer_1" xmlns="http://www.w3.org/2000/svg" xmlns:xlink="http://www.w3.org/1999/xlink" x="0px" y="0px"
	 width="433.503px" height="433.5px" viewBox="0 0 433.503 433.5" style="enable-background:new 0 0 433.503 433.5;"
	 xml:space="preserve">
<g>
	<path d="M866.835,325.937c0,97.617-79.135,176.751-176.748,176.751c-97.617,0-176.751-79.134-176.751-176.751
		c0-97.616,79.134-176.749,176.751-176.749C787.701,149.188,866.835,228.321,866.835,325.937z"/>
</g>
<g>
	<path style="fill:#FFFFFF;" d="M700.401,329.164l10.893,3.624l130.256-43.647l9.6-13.945c-16.065-5.346-16.065-5.346-16.065-5.346
		L704.831,313.5c0,0-0.007,0.004-6.511,9.452c-2.569-3.36-7.047-4.911-11.276-3.494c-5.327,1.786-8.199,7.55-6.411,12.876
		c1.783,5.326,7.549,8.2,12.873,6.416C697.74,337.331,700.375,333.395,700.401,329.164z"/>
</g>
<g>
	<path style="fill:#FFFFFF;" d="M601.038,230.597c1.548,16.86,1.548,16.86,1.548,16.86l18.433,20.347l13.804,15.238l35.319,38.991
		c0,0,0.008,0.003,11.27,2.169c-2.048,3.701-1.675,8.425,1.322,11.733c3.771,4.162,10.203,4.481,14.369,0.71
		c4.163-3.771,4.48-10.204,0.71-14.367c-2.997-3.309-7.66-4.146-11.544-2.475l-1.052-11.428l-35.318-38.991l-13.806-15.24
		l-18.43-20.346L601.038,230.597z"/>
</g>
<g>
	<g>
		<circle style="fill:#FFFFFF;" cx="216.939" cy="220.051" r="10.172"/>
	</g>
	<g>
		<circle style="fill:#FFFFFF;" cx="216.939" cy="61.569" r="5.691"/>
	</g>
	<g>
		<rect x="215.626" y="50.797" style="fill:#FFFFFF;" width="2.625" height="208.906"/>
	</g>
	<g>
		<circle cx="216.938" cy="220.051" r="3.436"/>
	</g>
</g>
<g>
	<path style="fill:#FFFFFF;" d="M779.452,443.708v3.064h-12.157l4.595-5.791c0.319-0.398,0.702-0.879,1.148-1.438
		c0.447-0.557,0.878-1.148,1.293-1.77c0.414-0.623,0.766-1.24,1.053-1.855c0.287-0.613,0.431-1.176,0.431-1.688
		c0-0.318-0.052-0.649-0.155-0.992c-0.104-0.344-0.256-0.658-0.455-0.945s-0.442-0.522-0.729-0.706s-0.614-0.275-0.981-0.275
		c-0.399,0-0.742,0.096-1.029,0.287s-0.522,0.438-0.706,0.742s-0.314,0.638-0.395,1.005s-0.111,0.718-0.096,1.053h-3.733
		c0.063-0.861,0.235-1.666,0.515-2.417c0.279-0.749,0.666-1.399,1.161-1.95c0.494-0.551,1.097-0.984,1.807-1.305
		c0.709-0.318,1.527-0.479,2.453-0.479c0.829,0,1.599,0.148,2.309,0.443s1.328,0.702,1.854,1.221
		c0.527,0.518,0.941,1.133,1.245,1.842c0.303,0.711,0.454,1.48,0.454,2.31c0,0.671-0.088,1.296-0.263,1.878
		c-0.176,0.584-0.407,1.143-0.694,1.676c-0.287,0.535-0.618,1.049-0.993,1.543c-0.375,0.496-0.77,0.982-1.185,1.461l-2.656,3.086
		H779.452z"/>
	<path style="fill:#FFFFFF;" d="M781.869,433.443c0.079-0.781,0.259-1.492,0.538-2.13s0.654-1.185,1.125-1.64
		c0.471-0.454,1.029-0.805,1.675-1.053c0.646-0.247,1.376-0.371,2.19-0.371c0.781,0,1.491,0.12,2.13,0.359
		c0.638,0.239,1.185,0.582,1.639,1.029c0.455,0.446,0.806,0.98,1.053,1.604c0.247,0.621,0.371,1.324,0.371,2.105
		c0,0.702-0.136,1.4-0.406,2.094c-0.271,0.693-0.71,1.248-1.316,1.664c0.414,0.176,0.77,0.426,1.064,0.754
		c0.295,0.326,0.534,0.693,0.718,1.1c0.184,0.408,0.319,0.83,0.407,1.27c0.088,0.438,0.132,0.865,0.132,1.279
		c0,0.895-0.152,1.691-0.455,2.393c-0.303,0.703-0.722,1.305-1.256,1.809c-0.535,0.502-1.169,0.885-1.902,1.148
		c-0.734,0.262-1.532,0.395-2.394,0.395c-0.83,0-1.6-0.145-2.31-0.432s-1.328-0.686-1.854-1.195
		c-0.526-0.512-0.949-1.113-1.269-1.807c-0.319-0.695-0.502-1.449-0.55-2.262h3.541c0.032,0.717,0.275,1.336,0.73,1.854
		c0.454,0.52,1.072,0.777,1.854,0.777c0.398,0,0.746-0.082,1.041-0.25s0.546-0.391,0.754-0.67c0.207-0.279,0.362-0.59,0.467-0.934
		c0.104-0.344,0.155-0.689,0.155-1.041s-0.06-0.707-0.18-1.064c-0.119-0.359-0.287-0.678-0.502-0.957
		c-0.216-0.279-0.479-0.5-0.79-0.658c-0.312-0.16-0.666-0.225-1.064-0.191l-0.646,0.047v-2.512h0.383
		c0.766,0,1.34-0.225,1.723-0.671s0.574-1.054,0.574-1.819c0-0.303-0.044-0.59-0.131-0.861c-0.088-0.271-0.22-0.514-0.396-0.729
		s-0.391-0.387-0.646-0.515c-0.256-0.127-0.551-0.191-0.886-0.191c-0.319,0-0.595,0.068-0.825,0.203
		c-0.231,0.137-0.432,0.312-0.599,0.527c-0.168,0.215-0.296,0.458-0.383,0.729c-0.088,0.271-0.14,0.542-0.155,0.813H781.869z"/>
</g>
<g>
	<g>
		<path d="M794.593,166.917c-0.296,0.478-0.594,0.936-0.892,1.374c-0.298,0.438-0.623,0.848-0.973,1.227
			c-0.352,0.38-0.736,0.733-1.154,1.058s-0.906,0.608-1.462,0.847c-1.023,0.459-2.063,0.627-3.12,0.505
			c-1.057-0.123-2.053-0.475-2.988-1.057c-0.771-0.479-1.395-1.134-1.872-1.965c-0.476-0.831-0.805-1.671-0.987-2.523l4.437-1.364
			c-0.104,0.369-0.09,0.797,0.04,1.285c0.13,0.488,0.359,0.834,0.691,1.04c0.495,0.308,0.977,0.354,1.442,0.134
			c0.467-0.219,0.908-0.549,1.323-0.991c0.413-0.442,0.782-0.932,1.104-1.47c0.32-0.538,0.586-0.972,0.791-1.302l8.097-13.024
			l4.048,2.517L794.593,166.917z"/>
		<path d="M805.633,165.303l-5.121,6.94c-0.27,0.366-0.522,0.756-0.762,1.17s-0.396,0.829-0.474,1.242
			c-0.077,0.414-0.055,0.82,0.067,1.218c0.123,0.399,0.418,0.772,0.889,1.119c0.469,0.346,0.912,0.519,1.33,0.518
			c0.417-0.001,0.812-0.1,1.185-0.295c0.371-0.195,0.72-0.468,1.047-0.819c0.325-0.35,0.623-0.708,0.893-1.073l5.12-6.94
			l3.652,2.695l-5.563,7.54c-1.386,1.878-2.91,2.943-4.572,3.194c-1.664,0.251-3.45-0.329-5.364-1.741
			c-1.913-1.411-2.995-2.948-3.245-4.61c-0.252-1.663,0.316-3.434,1.701-5.312l5.563-7.54L805.633,165.303z"/>
		<path d="M820.219,181.86c-0.045-0.441-0.152-0.878-0.319-1.312c-0.168-0.433-0.421-0.798-0.764-1.097
			c-0.277-0.242-0.62-0.368-1.025-0.378c-0.407-0.011-0.737,0.131-0.993,0.424c-0.199,0.229-0.294,0.476-0.283,0.743
			s0.081,0.565,0.21,0.893c0.13,0.329,0.295,0.673,0.495,1.035c0.201,0.362,0.399,0.743,0.596,1.142
			c0.195,0.401,0.361,0.818,0.498,1.253s0.207,0.89,0.208,1.364c0.002,0.475-0.091,0.96-0.279,1.456
			c-0.188,0.496-0.51,1.004-0.965,1.525c-0.583,0.667-1.228,1.152-1.936,1.453c-0.706,0.301-1.431,0.45-2.174,0.448
			c-0.744-0.004-1.481-0.152-2.214-0.447s-1.417-0.719-2.052-1.273c-0.814-0.711-1.439-1.564-1.875-2.561
			c-0.437-0.997-0.638-2.041-0.604-3.13l3.333-0.664c-0.001,0.658,0.093,1.315,0.284,1.969c0.189,0.653,0.537,1.2,1.043,1.641
			c0.374,0.327,0.799,0.489,1.273,0.487c0.475-0.001,0.882-0.198,1.224-0.589c0.228-0.261,0.347-0.537,0.356-0.828
			c0.012-0.292-0.037-0.599-0.143-0.922c-0.107-0.321-0.26-0.664-0.461-1.025c-0.2-0.361-0.391-0.735-0.569-1.121
			c-0.181-0.386-0.346-0.789-0.496-1.207c-0.151-0.418-0.23-0.846-0.237-1.282c-0.007-0.437,0.066-0.882,0.22-1.337
			c0.152-0.454,0.442-0.926,0.868-1.414c0.483-0.555,1.028-0.989,1.635-1.307c0.606-0.317,1.226-0.502,1.858-0.552
			c0.632-0.051,1.265,0.028,1.901,0.238c0.634,0.209,1.236,0.563,1.806,1.06c0.636,0.554,1.228,1.25,1.774,2.085
			c0.546,0.836,0.88,1.679,0.999,2.528L820.219,181.86z"/>
		<path d="M819.374,197.861l-3.237-3.183l8.479-8.623l-1.11-1.092l2.682-2.728l1.11,1.091l3.772-3.838l3.237,3.183l-3.773,3.837
			l1.988,1.955l-2.682,2.729l-1.989-1.955L819.374,197.861z"/>
		<path d="M833.565,213.992l-2.384-2.991l21.503-17.134l2.384,2.992L833.565,213.992z"/>
		<path d="M848.036,235.585l-1.932-3.302l23.733-13.881l1.932,3.303L848.036,235.585z"/>
		<path d="M859.277,259.023l-1.441-3.544l25.467-10.363l1.442,3.543L859.277,259.023z"/>
		<path d="M867.076,283.8l-0.925-3.713l26.678-6.651l0.926,3.712L867.076,283.8z"/>
		<path d="M871.29,309.445l-0.391-3.807l27.352-2.803l0.391,3.807L871.29,309.445z"/>
		<path d="M888.309,334.388c-0.053,1.23-0.31,2.352-0.774,3.359s-1.084,1.863-1.86,2.566c-0.775,0.703-1.695,1.238-2.76,1.605
			c-1.065,0.365-2.213,0.523-3.443,0.473c-1.231-0.053-2.356-0.301-3.377-0.742c-1.02-0.443-1.887-1.049-2.602-1.813
			c-0.714-0.766-1.259-1.67-1.638-2.715c-0.378-1.043-0.541-2.191-0.489-3.443c0.052-1.254,0.312-2.383,0.775-3.391
			c0.463-1.009,1.084-1.864,1.859-2.566c0.775-0.703,1.69-1.234,2.744-1.59c1.053-0.355,2.195-0.508,3.426-0.457
			c1.232,0.053,2.361,0.305,3.392,0.758c1.03,0.455,1.902,1.064,2.618,1.83c0.713,0.766,1.261,1.67,1.639,2.715
			C888.197,332.021,888.36,333.158,888.309,334.388z M884.292,334.22c0.023-0.584-0.084-1.111-0.322-1.588
			c-0.24-0.475-0.564-0.883-0.972-1.225s-0.878-0.609-1.41-0.805c-0.533-0.195-1.07-0.305-1.609-0.328
			c-0.54-0.021-1.077,0.041-1.614,0.193c-0.537,0.15-1.022,0.379-1.456,0.685c-0.436,0.307-0.791,0.687-1.069,1.14
			c-0.279,0.453-0.432,0.973-0.456,1.555c-0.024,0.584,0.084,1.111,0.323,1.588c0.24,0.475,0.564,0.883,0.971,1.225
			c0.408,0.342,0.872,0.609,1.396,0.805c0.521,0.195,1.052,0.305,1.593,0.326c0.539,0.023,1.082-0.041,1.63-0.191
			c0.547-0.15,1.037-0.377,1.473-0.684c0.435-0.307,0.791-0.688,1.07-1.141C884.116,335.322,884.266,334.804,884.292,334.22z"/>
		<path d="M885.045,350.113l-0.01,0.064c0.643,0.568,1.063,1.236,1.264,2.006c0.199,0.77,0.244,1.561,0.133,2.375
			c-0.144,1.049-0.441,1.902-0.892,2.561s-1.004,1.156-1.66,1.492c-0.657,0.334-1.399,0.531-2.226,0.594
			c-0.827,0.061-1.701,0.029-2.621-0.098l-9.636-1.32l0.616-4.498l8.352,1.146c0.471,0.064,0.965,0.119,1.482,0.17
			c0.517,0.049,0.993,0.031,1.431-0.051c0.437-0.082,0.815-0.27,1.141-0.563c0.323-0.293,0.528-0.762,0.617-1.404
			c0.091-0.664-0.005-1.201-0.285-1.611c-0.283-0.408-0.658-0.732-1.128-0.971c-0.47-0.24-0.986-0.414-1.548-0.523
			c-0.563-0.111-1.081-0.199-1.552-0.262l-7.806-1.07l0.616-4.498l15.773,2.162l-0.617,4.498L885.045,350.113z"/>
		<path d="M875.095,365.667c-0.48-0.111-0.979-0.17-1.494-0.178c-0.517-0.01-0.999,0.057-1.449,0.197s-0.849,0.381-1.19,0.725
			c-0.344,0.34-0.58,0.797-0.712,1.365c-0.171,0.738-0.11,1.389,0.181,1.955s0.707,1.066,1.251,1.504l-1.604,3.922
			c-1.438-0.91-2.433-2.088-2.982-3.533c-0.55-1.447-0.636-2.992-0.257-4.635c0.277-1.201,0.727-2.234,1.348-3.1
			c0.621-0.867,1.373-1.547,2.252-2.043c0.88-0.496,1.856-0.809,2.928-0.938c1.072-0.131,2.199-0.059,3.378,0.215
			c1.18,0.271,2.244,0.684,3.193,1.234c0.947,0.553,1.73,1.227,2.345,2.021c0.615,0.797,1.029,1.715,1.245,2.752
			c0.215,1.035,0.177,2.186-0.115,3.449c-0.291,1.264-0.765,2.309-1.421,3.133c-0.657,0.824-1.433,1.449-2.33,1.875
			s-1.896,0.666-2.995,0.723c-1.101,0.057-2.23-0.049-3.388-0.316l-0.537-0.123L875.095,365.667z M876.451,372.335
			c0.415,0.029,0.823,0.014,1.227-0.049c0.402-0.063,0.78-0.186,1.134-0.371c0.353-0.184,0.658-0.424,0.915-0.719
			c0.257-0.297,0.435-0.654,0.531-1.076c0.102-0.443,0.103-0.857,0.004-1.246c-0.099-0.391-0.262-0.738-0.49-1.047
			c-0.229-0.307-0.516-0.578-0.86-0.813c-0.346-0.236-0.711-0.432-1.096-0.586L876.451,372.335z"/>
		<path d="M855.717,401.25l1.551-3.498l25.134,11.146l-1.551,3.498L855.717,401.25z"/>
		<path d="M843.282,424.085l2.027-3.244l23.316,14.572l-2.029,3.242L843.282,424.085z"/>
		<path d="M827.752,444.939l2.469-2.924l21.009,17.736l-2.468,2.924L827.752,444.939z"/>
		<path d="M809.416,463.343l2.861-2.539l18.248,20.566l-2.861,2.539L809.416,463.343z"/>
		<path d="M788.612,478.933l3.197-2.102L806.92,499.8l-3.197,2.104L788.612,478.933z"/>
		<path d="M775.856,502.794l-0.06,0.027c-0.143,0.746-0.472,1.418-0.989,2.014c-0.518,0.594-1.111,1.041-1.784,1.336
			c-1.858,0.822-3.588,0.676-5.19-0.436c-0.14,0.912-0.501,1.74-1.084,2.482c-0.581,0.74-1.299,1.299-2.147,1.676
			c-0.93,0.41-1.764,0.582-2.501,0.52c-0.737-0.064-1.398-0.293-1.985-0.684c-0.586-0.391-1.107-0.916-1.565-1.576
			c-0.455-0.662-0.859-1.387-1.209-2.178l-4.009-9.074l4.151-1.836l3.381,7.652c0.156,0.355,0.344,0.764,0.559,1.225
			c0.215,0.459,0.476,0.877,0.782,1.248c0.307,0.373,0.657,0.645,1.05,0.813c0.394,0.17,0.848,0.141,1.361-0.086
			c0.574-0.254,0.935-0.615,1.082-1.082s0.187-0.969,0.115-1.504c-0.07-0.535-0.213-1.07-0.424-1.602
			c-0.212-0.533-0.4-0.988-0.566-1.363l-3.158-7.148l4.152-1.834l3.263,7.387c0.156,0.355,0.345,0.779,0.563,1.273
			s0.487,0.943,0.807,1.346s0.688,0.701,1.104,0.895c0.418,0.193,0.893,0.174,1.426-0.063c0.574-0.254,0.939-0.617,1.098-1.088
			c0.157-0.471,0.196-0.973,0.115-1.504s-0.232-1.063-0.454-1.59s-0.416-0.98-0.581-1.355l-3.158-7.148l4.152-1.834l6.433,14.563
			l-4.151,1.834L775.856,502.794z"/>
		<path d="M748.721,515.441c-1.176,0.363-2.317,0.496-3.423,0.396c-1.104-0.1-2.119-0.396-3.042-0.893
			c-0.922-0.496-1.734-1.184-2.438-2.064c-0.701-0.879-1.233-1.908-1.599-3.086c-0.363-1.176-0.507-2.32-0.432-3.428
			c0.075-1.111,0.354-2.129,0.836-3.059s1.151-1.748,2.008-2.453c0.856-0.707,1.884-1.246,3.08-1.615
			c1.198-0.371,2.35-0.506,3.455-0.406c1.106,0.1,2.12,0.396,3.042,0.893c0.923,0.494,1.728,1.18,2.417,2.053
			c0.688,0.873,1.214,1.898,1.579,3.074c0.362,1.178,0.504,2.328,0.421,3.451c-0.083,1.121-0.364,2.148-0.848,3.078
			c-0.481,0.93-1.15,1.748-2.007,2.453C750.917,514.541,749.899,515.076,748.721,515.441z M747.534,511.599
			c0.559-0.172,1.021-0.451,1.388-0.836c0.368-0.385,0.644-0.828,0.829-1.326s0.281-1.031,0.286-1.598
			c0.006-0.568-0.07-1.109-0.231-1.627c-0.159-0.516-0.399-1.002-0.721-1.455c-0.322-0.455-0.7-0.836-1.135-1.143
			c-0.434-0.307-0.91-0.516-1.432-0.627c-0.521-0.109-1.06-0.08-1.618,0.094c-0.557,0.172-1.02,0.449-1.387,0.836
			c-0.367,0.385-0.644,0.826-0.829,1.324c-0.185,0.5-0.282,1.025-0.291,1.584c-0.009,0.557,0.067,1.094,0.227,1.609
			c0.16,0.516,0.401,1.008,0.727,1.473s0.705,0.852,1.139,1.158c0.435,0.307,0.912,0.516,1.433,0.625
			C746.438,511.802,746.977,511.771,747.534,511.599z"/>
		<path d="M732.888,517.406l-0.063,0.014c-0.291,0.775-0.721,1.42-1.293,1.936c-0.57,0.516-1.267,0.867-2.089,1.053
			c-0.317,0.07-0.637,0.104-0.959,0.098c-0.322-0.004-0.643-0.025-0.962-0.064l-0.388-4.234c0.635,0.258,1.289,0.309,1.964,0.158
			c0.759-0.172,1.33-0.461,1.716-0.869c0.385-0.408,0.638-0.885,0.758-1.434c0.12-0.547,0.143-1.135,0.068-1.76
			s-0.178-1.234-0.311-1.824l-1.572-6.99l4.429-0.996l3.493,15.531l-4.429,0.996L732.888,517.406z"/>
		<path d="M720.412,512.675c-0.071-0.488-0.197-0.973-0.379-1.457c-0.18-0.482-0.417-0.908-0.712-1.275
			c-0.295-0.369-0.665-0.65-1.108-0.846c-0.443-0.193-0.954-0.248-1.532-0.164c-0.747,0.111-1.333,0.404-1.755,0.883
			c-0.42,0.477-0.734,1.047-0.942,1.713l-4.236-0.063c0.321-1.672,1.055-3.027,2.2-4.068c1.146-1.039,2.555-1.682,4.222-1.928
			c1.219-0.182,2.345-0.139,3.378,0.123s1.94,0.713,2.723,1.352c0.783,0.639,1.431,1.432,1.942,2.385
			c0.513,0.951,0.856,2.025,1.033,3.223c0.176,1.197,0.182,2.338,0.014,3.422c-0.168,1.086-0.51,2.059-1.026,2.922
			s-1.22,1.584-2.106,2.162s-1.973,0.963-3.255,1.154c-1.283,0.188-2.428,0.129-3.436-0.182s-1.871-0.805-2.595-1.484
			c-0.724-0.682-1.312-1.523-1.766-2.525c-0.454-1.004-0.769-2.094-0.942-3.27l-0.08-0.545L720.412,512.675z M714.699,516.371
			c0.124,0.396,0.288,0.771,0.493,1.123c0.205,0.354,0.457,0.66,0.759,0.922c0.3,0.262,0.636,0.457,1.005,0.588
			s0.767,0.166,1.194,0.104c0.448-0.066,0.837-0.217,1.163-0.451c0.324-0.234,0.591-0.514,0.794-0.838
			c0.203-0.326,0.351-0.691,0.442-1.098c0.094-0.408,0.143-0.82,0.146-1.234L714.699,516.371z"/>
		<path d="M689.309,507.904l3.825-0.027l0.197,27.494l-3.826,0.027L689.309,507.904z"/>
		<path d="M663.377,505.953l3.79,0.521l-3.74,27.238l-3.79-0.521L663.377,505.953z"/>
		<path d="M638.042,500.314l3.676,1.059l-7.606,26.422l-3.677-1.061L638.042,500.314z"/>
		<path d="M613.731,491.087l3.488,1.572l-11.307,25.063l-3.487-1.572L613.731,491.087z"/>
		<path d="M590.96,478.501l3.231,2.049l-14.719,23.223l-3.23-2.047L590.96,478.501z"/>
		<path d="M568.02,469.927l-9.359,4.643l-1.62-1.447l3.614-9.941l-8.711,4.697l-3.677-3.283l16.332-7.195l1.717,1.533l-3.915,9.5
			l9.285-4.707l1.741,1.555l-5.35,16.998l-3.701-3.303L568.02,469.927z"/>
		<path d="M548.861,440.949l2.968,3.35l-1.094,0.967l0.044,0.049c0.799-0.043,1.585,0.111,2.36,0.465
			c0.774,0.354,1.435,0.838,1.98,1.453c0.772,0.873,1.278,1.811,1.517,2.813c0.237,1.002,0.265,2.004,0.081,3.002
			c-0.183,1-0.551,1.961-1.104,2.885c-0.555,0.924-1.236,1.744-2.045,2.461c-0.792,0.701-1.674,1.264-2.64,1.689
			c-0.969,0.422-1.954,0.662-2.961,0.715c-1.007,0.055-1.985-0.098-2.937-0.453c-0.949-0.355-1.805-0.963-2.564-1.82
			c-0.545-0.615-0.949-1.334-1.213-2.152c-0.264-0.82-0.34-1.654-0.228-2.506l-1.116,0.988l-2.967-3.35L548.861,440.949z
			 M551.421,449.121c-0.388-0.438-0.837-0.74-1.347-0.908c-0.511-0.17-1.035-0.24-1.572-0.211s-1.063,0.154-1.572,0.375
			c-0.512,0.223-0.969,0.512-1.374,0.871c-0.403,0.357-0.747,0.777-1.03,1.258c-0.28,0.48-0.469,0.986-0.563,1.516
			c-0.093,0.531-0.083,1.055,0.031,1.576c0.114,0.52,0.364,0.998,0.751,1.434c0.387,0.438,0.832,0.744,1.333,0.92
			c0.504,0.176,1.021,0.246,1.551,0.209s1.051-0.166,1.563-0.387c0.511-0.223,0.969-0.512,1.372-0.871
			c0.405-0.359,0.749-0.777,1.03-1.258c0.282-0.48,0.473-0.982,0.573-1.504c0.102-0.521,0.099-1.047-0.008-1.574
			C552.055,450.039,551.807,449.556,551.421,449.121z"/>
		<path d="M544.076,434.568l2.753,3.609l-9.614,7.336l0.943,1.236l-3.041,2.32l-0.943-1.236l-4.28,3.264l-2.753-3.607l4.279-3.266
			l-1.691-2.217l3.042-2.32l1.69,2.217L544.076,434.568z"/>
		<path d="M526.783,428.994c-0.135,0.689-0.171,1.326-0.106,1.906c0.066,0.582,0.291,1.16,0.677,1.734
			c0.361,0.537,0.794,0.938,1.294,1.201c0.503,0.262,1.034,0.404,1.599,0.43c0.563,0.025,1.13-0.043,1.698-0.203
			c0.569-0.16,1.096-0.404,1.58-0.73c0.521-0.35,0.955-0.758,1.305-1.227s0.599-0.969,0.75-1.5c0.15-0.531,0.181-1.078,0.088-1.641
			c-0.092-0.564-0.318-1.115-0.68-1.652c-0.35-0.521-0.791-0.928-1.325-1.219s-1.105-0.482-1.711-0.57l3.633-2.439
			c0.639,0.328,1.198,0.717,1.687,1.172c0.486,0.453,0.923,0.969,1.309,1.543c0.651,0.969,1.063,1.988,1.234,3.057
			c0.172,1.07,0.138,2.115-0.103,3.135c-0.239,1.02-0.669,1.979-1.289,2.877s-1.406,1.668-2.357,2.307
			c-0.986,0.662-2.025,1.113-3.115,1.35c-1.091,0.238-2.159,0.266-3.205,0.084c-1.048-0.184-2.035-0.568-2.963-1.156
			c-0.929-0.586-1.73-1.383-2.405-2.389c-0.35-0.52-0.635-1.088-0.855-1.709c-0.222-0.619-0.344-1.26-0.371-1.918L526.783,428.994z"
			/>
		<path d="M508.437,430.248l11.274-6.277l-0.031-0.057c-0.798-0.1-1.503-0.4-2.116-0.9c-0.612-0.5-1.118-1.109-1.518-1.826
			c-0.516-0.926-0.79-1.787-0.826-2.584s0.108-1.525,0.433-2.189c0.324-0.662,0.798-1.266,1.421-1.813
			c0.624-0.545,1.342-1.043,2.154-1.496l8.499-4.732l2.208,3.967l-7.365,4.102c-0.415,0.23-0.845,0.482-1.288,0.754
			c-0.442,0.271-0.813,0.57-1.113,0.898s-0.491,0.707-0.574,1.135c-0.081,0.43,0.035,0.928,0.35,1.494
			c0.326,0.586,0.727,0.959,1.197,1.115c0.471,0.158,0.965,0.191,1.484,0.102s1.035-0.262,1.552-0.512s0.982-0.492,1.398-0.723
			l6.883-3.834l2.209,3.967l-24.022,13.375L508.437,430.248z"/>
		<path d="M519.467,401.453l10.816,0.105l0.953,2.885l-10.428,0.963L519.467,401.453z"/>
		<path d="M516.562,380.634l1.188,3.637l-26.137,8.533l-1.188-3.639L516.562,380.634z"/>
		<path d="M510.534,355.341l0.659,3.768l-27.082,4.742l-0.66-3.768L510.534,355.341z"/>
		<path d="M508.155,329.453l0.118,3.824l-27.482,0.846l-0.117-3.824L508.155,329.453z"/>
		<path d="M509.491,303.488l-0.43,3.803l-27.32-3.092l0.43-3.803L509.491,303.488z"/>
		<path d="M515.944,273.093l-1.326,4.578l-23.48-6.809l1.327-4.578L515.944,273.093z"/>
		<path d="M508.181,251.806c-0.374-0.724-0.564-1.515-0.572-2.377c-0.008-0.861,0.153-1.68,0.483-2.455
			c0.441-1.033,1.062-1.867,1.861-2.502c0.8-0.633,1.686-1.084,2.657-1.351s1.985-0.356,3.041-0.271
			c1.056,0.086,2.062,0.333,3.016,0.74c0.994,0.424,1.9,0.987,2.716,1.688c0.817,0.702,1.471,1.497,1.961,2.388
			c0.488,0.891,0.776,1.854,0.864,2.89c0.086,1.036-0.101,2.09-0.558,3.164c-0.322,0.755-0.797,1.422-1.42,2.002
			s-1.322,0.952-2.097,1.114l-0.025,0.06l9.185,3.92l-1.782,4.174l-22.454-9.584l1.781-4.175L508.181,251.806z M519.559,253.066
			c0.228-0.537,0.311-1.071,0.244-1.605c-0.066-0.533-0.229-1.032-0.49-1.496c-0.26-0.463-0.601-0.878-1.02-1.246
			c-0.419-0.367-0.876-0.656-1.374-0.869c-0.496-0.212-1.022-0.342-1.578-0.392c-0.555-0.048-1.09-0.007-1.604,0.126
			s-0.982,0.362-1.404,0.688c-0.421,0.326-0.746,0.757-0.976,1.294c-0.229,0.536-0.314,1.069-0.258,1.599
			c0.055,0.529,0.214,1.025,0.474,1.489c0.26,0.463,0.601,0.879,1.02,1.246c0.419,0.367,0.877,0.656,1.374,0.869
			s1.022,0.343,1.578,0.391c0.556,0.05,1.091,0.008,1.605-0.126c0.515-0.132,0.986-0.359,1.418-0.681
			C519,254.033,519.33,253.604,519.559,253.066z"/>
		<path d="M516.409,234.677l0.031-0.058c-0.402-0.724-0.614-1.47-0.638-2.238c-0.023-0.77,0.16-1.527,0.553-2.273
			c0.15-0.287,0.332-0.552,0.544-0.795c0.213-0.242,0.438-0.472,0.674-0.689l3.476,2.447c-0.605,0.316-1.069,0.781-1.39,1.394
			c-0.363,0.689-0.512,1.313-0.451,1.869c0.063,0.558,0.263,1.06,0.602,1.506c0.34,0.447,0.771,0.844,1.296,1.192
			c0.524,0.35,1.056,0.665,1.591,0.945l6.346,3.331l-2.11,4.019l-14.096-7.399l2.109-4.019L516.409,234.677z"/>
		<path d="M522.207,220.272c0.656-1.043,1.436-1.887,2.339-2.532c0.902-0.646,1.866-1.08,2.889-1.307
			c1.021-0.225,2.085-0.232,3.192-0.022c1.106,0.211,2.181,0.644,3.223,1.299c1.044,0.656,1.898,1.429,2.563,2.319
			c0.666,0.891,1.119,1.846,1.359,2.865c0.24,1.02,0.265,2.075,0.076,3.168c-0.189,1.094-0.618,2.171-1.284,3.233
			c-0.668,1.062-1.453,1.915-2.355,2.56c-0.904,0.645-1.867,1.08-2.89,1.305c-1.022,0.226-2.078,0.232-3.17,0.018
			c-1.091-0.213-2.158-0.648-3.202-1.304c-1.043-0.655-1.899-1.436-2.568-2.342c-0.669-0.904-1.124-1.867-1.363-2.887
			c-0.241-1.019-0.267-2.075-0.076-3.169C521.128,222.383,521.551,221.314,522.207,220.272z M525.61,222.411
			c-0.31,0.494-0.479,1.007-0.506,1.539c-0.028,0.532,0.05,1.046,0.233,1.545c0.185,0.499,0.46,0.966,0.825,1.399
			c0.365,0.435,0.777,0.795,1.234,1.083c0.458,0.288,0.956,0.5,1.496,0.635c0.541,0.136,1.076,0.178,1.605,0.128
			c0.53-0.05,1.026-0.203,1.495-0.459c0.467-0.255,0.854-0.63,1.166-1.124c0.311-0.494,0.479-1.006,0.508-1.538
			c0.026-0.532-0.052-1.047-0.236-1.546c-0.184-0.499-0.454-0.961-0.811-1.391c-0.355-0.428-0.762-0.786-1.221-1.073
			c-0.457-0.288-0.961-0.502-1.511-0.643c-0.549-0.141-1.089-0.187-1.618-0.137c-0.529,0.05-1.028,0.203-1.495,0.458
			C526.31,221.543,525.921,221.917,525.61,222.411z"/>
		<path d="M532.861,207.978l0.041-0.05c-0.217-0.729-0.233-1.477-0.047-2.243c0.186-0.766,0.509-1.435,0.971-2.007
			c1.272-1.583,2.875-2.249,4.81-1.998c-0.295-0.875-0.354-1.775-0.178-2.702c0.176-0.926,0.556-1.751,1.138-2.476
			c0.636-0.792,1.298-1.328,1.981-1.61c0.685-0.281,1.377-0.383,2.077-0.306c0.699,0.078,1.405,0.305,2.115,0.682
			c0.709,0.377,1.401,0.836,2.075,1.377l7.731,6.219l-2.847,3.537l-6.518-5.243c-0.303-0.244-0.656-0.521-1.059-0.831
			c-0.402-0.309-0.825-0.56-1.269-0.75c-0.444-0.19-0.879-0.27-1.306-0.239c-0.428,0.031-0.818,0.266-1.17,0.704
			c-0.393,0.489-0.547,0.974-0.463,1.457c0.083,0.483,0.278,0.946,0.588,1.39c0.309,0.442,0.68,0.853,1.113,1.228
			c0.432,0.376,0.809,0.693,1.129,0.95l6.089,4.897l-2.845,3.538l-6.292-5.061c-0.302-0.243-0.663-0.534-1.085-0.874
			c-0.421-0.338-0.866-0.613-1.336-0.824c-0.468-0.21-0.932-0.306-1.391-0.287c-0.459,0.02-0.873,0.256-1.237,0.711
			c-0.394,0.488-0.552,0.979-0.475,1.47c0.076,0.492,0.271,0.954,0.588,1.389c0.316,0.436,0.694,0.836,1.134,1.203
			c0.439,0.368,0.82,0.68,1.139,0.938l6.09,4.897l-2.845,3.538l-12.406-9.978l2.847-3.537L532.861,207.978z"/>
		<path d="M541.247,181.705c0.526-0.543,1.162-0.817,1.902-0.822c0.741-0.004,1.376,0.249,1.904,0.76
			c0.543,0.526,0.82,1.156,0.833,1.889c0.012,0.734-0.245,1.372-0.771,1.916c-0.526,0.544-1.156,0.821-1.89,0.833
			s-1.372-0.245-1.915-0.771c-0.528-0.511-0.802-1.137-0.822-1.878C540.469,182.892,540.722,182.25,541.247,181.705z M561,197.66
			l-3.157,3.262l-11.44-11.069l3.157-3.263L561,197.66z"/>
		<path d="M560.944,180.956c-0.444-0.002-0.891,0.056-1.339,0.175s-0.839,0.332-1.173,0.64c-0.271,0.249-0.433,0.575-0.488,0.978
			c-0.055,0.403,0.05,0.748,0.313,1.034c0.205,0.223,0.441,0.343,0.709,0.362c0.266,0.019,0.569-0.019,0.91-0.111
			c0.34-0.093,0.702-0.22,1.083-0.38s0.781-0.316,1.2-0.467c0.42-0.151,0.854-0.271,1.3-0.36c0.448-0.088,0.908-0.107,1.38-0.057
			c0.472,0.05,0.943,0.195,1.416,0.437c0.472,0.242,0.942,0.617,1.411,1.125c0.6,0.652,1.011,1.347,1.232,2.082
			c0.223,0.736,0.291,1.473,0.208,2.211c-0.085,0.739-0.313,1.456-0.686,2.151c-0.373,0.696-0.87,1.329-1.49,1.901
			c-0.795,0.732-1.712,1.26-2.75,1.584c-1.038,0.325-2.098,0.411-3.177,0.259l-0.296-3.385c0.654,0.073,1.316,0.051,1.987-0.067
			c0.67-0.117,1.252-0.403,1.744-0.857c0.366-0.336,0.574-0.741,0.624-1.213c0.051-0.472-0.101-0.899-0.452-1.281
			c-0.233-0.254-0.495-0.403-0.784-0.445s-0.6-0.028-0.932,0.042c-0.332,0.07-0.688,0.186-1.07,0.345
			c-0.38,0.16-0.772,0.31-1.177,0.445c-0.403,0.137-0.821,0.257-1.254,0.362c-0.432,0.104-0.865,0.136-1.3,0.096
			c-0.436-0.041-0.869-0.162-1.306-0.364c-0.434-0.201-0.871-0.541-1.312-1.018c-0.497-0.541-0.87-1.13-1.119-1.767
			s-0.364-1.273-0.346-1.908c0.018-0.634,0.166-1.255,0.443-1.863c0.277-0.608,0.694-1.168,1.252-1.681
			c0.62-0.571,1.375-1.083,2.265-1.535c0.892-0.453,1.766-0.692,2.624-0.718L560.944,180.956z"/>
		<path d="M571.094,178.807c0.306,0.388,0.655,0.748,1.051,1.078c0.396,0.33,0.814,0.583,1.253,0.756
			c0.438,0.174,0.899,0.236,1.38,0.185c0.482-0.051,0.954-0.256,1.413-0.616c0.595-0.466,0.957-1.012,1.086-1.635
			c0.131-0.624,0.12-1.274-0.028-1.955l3.712-2.044c0.549,1.611,0.582,3.151,0.102,4.623c-0.48,1.471-1.385,2.727-2.712,3.767
			c-0.969,0.76-1.969,1.281-2.995,1.565c-1.027,0.284-2.039,0.342-3.035,0.175c-0.995-0.167-1.952-0.536-2.868-1.11
			c-0.916-0.572-1.747-1.335-2.493-2.288c-0.747-0.952-1.315-1.941-1.707-2.967c-0.393-1.024-0.577-2.04-0.556-3.047
			c0.022-1.005,0.275-1.979,0.759-2.921c0.483-0.941,1.235-1.813,2.257-2.613c1.021-0.8,2.045-1.314,3.073-1.544
			c1.029-0.229,2.026-0.228,2.992,0.005c0.963,0.232,1.892,0.672,2.783,1.319c0.892,0.646,1.704,1.438,2.438,2.374l0.339,0.434
			L571.094,178.807z M574.228,172.767c-0.303-0.283-0.632-0.526-0.984-0.731c-0.352-0.204-0.724-0.345-1.114-0.423
			s-0.779-0.083-1.165-0.015c-0.386,0.069-0.748,0.237-1.089,0.503c-0.356,0.281-0.619,0.603-0.786,0.967
			c-0.167,0.365-0.261,0.738-0.275,1.121c-0.016,0.383,0.037,0.774,0.158,1.175c0.12,0.398,0.282,0.781,0.484,1.144L574.228,172.767
			z"/>
		<path d="M584.948,171.185c0.662-0.449,1.381-0.604,2.154-0.463c0.775,0.141,1.387,0.542,1.837,1.204
			c0.447,0.661,0.602,1.387,0.457,2.176c-0.144,0.79-0.546,1.41-1.208,1.858c-0.661,0.45-1.386,0.594-2.172,0.437
			c-0.787-0.158-1.404-0.569-1.854-1.231c-0.447-0.662-0.595-1.377-0.44-2.15C583.878,172.244,584.286,171.633,584.948,171.185z"/>
		<path d="M608.531,163.283l-3.403,1.748l-12.558-24.459l3.403-1.748L608.531,163.283z"/>
		<path d="M632.536,153.342l-3.615,1.247l-8.961-25.994l3.617-1.247L632.536,153.342z"/>
		<path d="M657.729,146.899l-3.758,0.722l-5.186-27.001l3.758-0.721L657.729,146.899z"/>
		<path d="M719.774,146.39l-3.781-0.583l4.195-27.172l3.781,0.583L719.774,146.39z"/>
		<path d="M745.059,152.466l-3.657-1.121l8.054-26.288l3.658,1.121L745.059,152.466z"/>
		<path d="M769.177,162.084l-3.461-1.631l11.719-24.872l3.462,1.63L769.177,162.084z"/>
	</g>
	<g>
		<path d="M690.09,542.688c-57.898,0-112.331-22.546-153.271-63.484s-63.485-95.369-63.485-153.266s22.546-112.327,63.485-153.266
			c40.939-40.939,95.372-63.485,153.271-63.485c57.895,0,112.324,22.546,153.263,63.485s63.484,95.37,63.484,153.266
			s-22.546,112.326-63.484,153.266C802.415,520.142,747.985,542.688,690.09,542.688z M690.09,112.188
			c-117.865,0-213.756,95.888-213.756,213.75s95.891,213.75,213.756,213.75c117.86,0,213.747-95.888,213.747-213.75
			S807.951,112.188,690.09,112.188z"/>
	</g>
	<g>
		<circle cx="690.084" cy="130.438" r="9.967"/>
	</g>
</g>
<g>
</g>
<g>
</g>
</svg>
